name rise31.4854peak64.571fall78.6902.mot
datacolumns 19
datarows 18
range 12.37329300000000 12.40162300000000
endheader
time	ground_force1_vx	ground_force1_vy	ground_force1_vz	ground_force1_px	ground_force1_py	ground_force1_pz	ground_force2_vx	ground_force2_vy	ground_force2_vz	ground_force2_px	ground_force2_py	ground_force2_pz	ground_torque1_x	ground_torque1_y	ground_torque1_z	ground_torque2_x	ground_torque2_y	ground_torque2_z	
12.37329300000000	-0.67577200000000	682.14289799999995	34.26619500000000	0.19260600000000	0.00000000000000	0.09200200000000	0.00000000000000	0.00000000000000	0.00000000000000	0.00000000000000	0.00000000000000	0.00000000000000	0.00000000000000	12.67355600000000	0.00000000000000	0.00000000000000	0.00000000000000	0.00000000000000	
12.37495800000000	-1.27386900000000	683.62984700000004	34.31887400000000	0.19151400000000	0.00000000000000	0.09202500000000	0.00000000000000	0.00000000000000	0.00000000000000	0.00000000000000	0.00000000000000	0.00000000000000	0.00000000000000	12.75631700000000	0.00000000000000	0.00000000000000	0.00000000000000	0.00000000000000	
12.37662000000000	-1.88678000000000	685.16607699999997	34.37458200000000	0.19038800000000	0.00000000000000	0.09205100000000	0.00000000000000	0.00000000000000	0.00000000000000	0.00000000000000	0.00000000000000	0.00000000000000	0.00000000000000	12.84248100000000	0.00000000000000	0.00000000000000	0.00000000000000	0.00000000000000	
12.37828400000000	-2.51438300000000	686.75005499999997	34.43311700000000	0.18923100000000	0.00000000000000	0.09207900000000	0.00000000000000	0.00000000000000	0.00000000000000	0.00000000000000	0.00000000000000	0.00000000000000	0.00000000000000	12.93194400000000	0.00000000000000	0.00000000000000	0.00000000000000	0.00000000000000	
12.37995000000000	-3.15650300000000	688.38030400000002	34.49429500000000	0.18804500000000	0.00000000000000	0.09210900000000	0.00000000000000	0.00000000000000	0.00000000000000	0.00000000000000	0.00000000000000	0.00000000000000	0.00000000000000	13.02460300000000	0.00000000000000	0.00000000000000	0.00000000000000	0.00000000000000	
12.38161700000000	-3.81290900000000	690.05540099999996	34.55795300000000	0.18683000000000	0.00000000000000	0.09214200000000	0.00000000000000	0.00000000000000	0.00000000000000	0.00000000000000	0.00000000000000	0.00000000000000	0.00000000000000	13.12036100000000	0.00000000000000	0.00000000000000	0.00000000000000	0.00000000000000	
12.38328500000000	-4.48331900000000	691.77398300000004	34.62395000000000	0.18558900000000	0.00000000000000	0.09217700000000	0.00000000000000	0.00000000000000	0.00000000000000	0.00000000000000	0.00000000000000	0.00000000000000	0.00000000000000	13.21912500000000	0.00000000000000	0.00000000000000	0.00000000000000	0.00000000000000	
12.38495100000000	-5.16739800000000	693.53474300000005	34.69216200000000	0.18432300000000	0.00000000000000	0.09221300000000	0.00000000000000	0.00000000000000	0.00000000000000	0.00000000000000	0.00000000000000	0.00000000000000	0.00000000000000	13.32080200000000	0.00000000000000	0.00000000000000	0.00000000000000	0.00000000000000	
12.38662200000000	-5.86476500000000	695.33643300000006	34.76248700000000	0.18303500000000	0.00000000000000	0.09225200000000	0.00000000000000	0.00000000000000	0.00000000000000	0.00000000000000	0.00000000000000	0.00000000000000	0.00000000000000	13.42530400000000	0.00000000000000	0.00000000000000	0.00000000000000	0.00000000000000	
12.38828800000000	-6.57499200000000	697.17786500000000	34.83484400000000	0.18172800000000	0.00000000000000	0.09229200000000	0.00000000000000	0.00000000000000	0.00000000000000	0.00000000000000	0.00000000000000	0.00000000000000	0.00000000000000	13.53254500000000	0.00000000000000	0.00000000000000	0.00000000000000	0.00000000000000	
12.38995300000000	-7.29760700000000	699.05790600000000	34.90917100000000	0.18040300000000	0.00000000000000	0.09233300000000	0.00000000000000	0.00000000000000	0.00000000000000	0.00000000000000	0.00000000000000	0.00000000000000	0.00000000000000	13.64243800000000	0.00000000000000	0.00000000000000	0.00000000000000	0.00000000000000	
12.39162000000000	-8.03209900000000	700.97547899999995	34.98542500000000	0.17906400000000	0.00000000000000	0.09237600000000	0.00000000000000	0.00000000000000	0.00000000000000	0.00000000000000	0.00000000000000	0.00000000000000	0.00000000000000	13.75490100000000	0.00000000000000	0.00000000000000	0.00000000000000	0.00000000000000	
12.39328700000000	-8.77791800000000	702.92956400000003	35.06358200000000	0.17771200000000	0.00000000000000	0.09242000000000	0.00000000000000	0.00000000000000	0.00000000000000	0.00000000000000	0.00000000000000	0.00000000000000	0.00000000000000	13.86984900000000	0.00000000000000	0.00000000000000	0.00000000000000	0.00000000000000	
12.39495800000000	-9.53447800000000	704.91918999999996	35.14363900000000	0.17635100000000	0.00000000000000	0.09246400000000	0.00000000000000	0.00000000000000	0.00000000000000	0.00000000000000	0.00000000000000	0.00000000000000	0.00000000000000	13.98719900000000	0.00000000000000	0.00000000000000	0.00000000000000	0.00000000000000	
12.39662200000000	-10.30116400000000	706.94343500000002	35.22560900000000	0.17498300000000	0.00000000000000	0.09250900000000	0.00000000000000	0.00000000000000	0.00000000000000	0.00000000000000	0.00000000000000	0.00000000000000	0.00000000000000	14.10686800000000	0.00000000000000	0.00000000000000	0.00000000000000	0.00000000000000	
12.39829200000000	-11.07733000000000	709.00142400000004	35.30952500000000	0.17361100000000	0.00000000000000	0.09255400000000	0.00000000000000	0.00000000000000	0.00000000000000	0.00000000000000	0.00000000000000	0.00000000000000	0.00000000000000	14.22877100000000	0.00000000000000	0.00000000000000	0.00000000000000	0.00000000000000	
12.39995900000000	-11.86230700000000	711.09232099999997	35.39543400000000	0.17223700000000	0.00000000000000	0.09260000000000	0.00000000000000	0.00000000000000	0.00000000000000	0.00000000000000	0.00000000000000	0.00000000000000	0.00000000000000	14.35282200000000	0.00000000000000	0.00000000000000	0.00000000000000	0.00000000000000	
12.40162300000000	-12.65540100000000	713.21533099999999	35.48340200000000	0.17086500000000	0.00000000000000	0.09264600000000	0.00000000000000	0.00000000000000	0.00000000000000	0.00000000000000	0.00000000000000	0.00000000000000	0.00000000000000	14.47893500000000	0.00000000000000	0.00000000000000	0.00000000000000	0.00000000000000	
